<?xml version="1.0" encoding="utf-8"?>
<!-- Generator: Adobe Illustrator 16.0.0, SVG Export Plug-In . SVG Version: 6.00 Build 0)  -->
<!DOCTYPE svg PUBLIC "-//W3C//DTD SVG 1.1//EN" "http://www.w3.org/Graphics/SVG/1.1/DTD/svg11.dtd">
<svg version="1.1" id="Layer_1" xmlns="http://www.w3.org/2000/svg" xmlns:xlink="http://www.w3.org/1999/xlink" x="0px" y="0px"
	 width="40px" height="40px" viewBox="0 0 40 40" enable-background="new 0 0 40 40" xml:space="preserve">
<g>
	<path fill="#AAAAAA" d="M28.046,21c-0.207,4-3.669,7.15-7.92,7.15c-4.386,0-8.305-3.75-8.305-8.136
		c0-4.251,3.179-7.908,7.179-8.117v-3.97C13,8.139,7.85,13.375,7.85,19.818c0,6.579,5.515,12.303,12.094,12.303
		C26.388,32.121,31.806,27,32.017,21H28.046z"/>
	<g>
		
			<rect x="18.518" y="12.295" transform="matrix(0.7071 -0.7071 0.7071 0.7071 -2.9779 22.1642)" fill="#AAAAAA" width="13.499" height="4.764"/>
		<polygon fill="#AAAAAA" points="15.771,24.174 20.262,23.051 16.893,19.682 		"/>
	</g>
</g>
</svg>
